<svg width="138" height="38" viewBox="0 0 138 38" fill="none" xmlns="http://www.w3.org/2000/svg">
<rect x="0.5" y="3.5" width="137" height="28" rx="3.5" fill="url(#paint0_linear)" stroke="#C7C9CD"/>
<path d="M35.828 12.432V21H37.712V17.46H41.3V15.996H37.712V14.016H41.852V12.432H35.828ZM44.2733 17.904C44.2733 17.656 44.2973 17.412 44.3453 17.172C44.3933 16.932 44.4733 16.72 44.5853 16.536C44.7053 16.352 44.8613 16.204 45.0533 16.092C45.2453 15.972 45.4853 15.912 45.7733 15.912C46.0613 15.912 46.3013 15.972 46.4933 16.092C46.6933 16.204 46.8493 16.352 46.9613 16.536C47.0813 16.72 47.1653 16.932 47.2133 17.172C47.2613 17.412 47.2853 17.656 47.2853 17.904C47.2853 18.152 47.2613 18.396 47.2133 18.636C47.1653 18.868 47.0813 19.08 46.9613 19.272C46.8493 19.456 46.6933 19.604 46.4933 19.716C46.3013 19.828 46.0613 19.884 45.7733 19.884C45.4853 19.884 45.2453 19.828 45.0533 19.716C44.8613 19.604 44.7053 19.456 44.5853 19.272C44.4733 19.08 44.3933 18.868 44.3453 18.636C44.2973 18.396 44.2733 18.152 44.2733 17.904ZM42.5693 17.904C42.5693 18.4 42.6453 18.848 42.7973 19.248C42.9493 19.648 43.1653 19.992 43.4453 20.28C43.7253 20.56 44.0613 20.776 44.4533 20.928C44.8453 21.08 45.2853 21.156 45.7733 21.156C46.2613 21.156 46.7013 21.08 47.0933 20.928C47.4933 20.776 47.8333 20.56 48.1133 20.28C48.3933 19.992 48.6093 19.648 48.7613 19.248C48.9133 18.848 48.9893 18.4 48.9893 17.904C48.9893 17.408 48.9133 16.96 48.7613 16.56C48.6093 16.152 48.3933 15.808 48.1133 15.528C47.8333 15.24 47.4933 15.02 47.0933 14.868C46.7013 14.708 46.2613 14.628 45.7733 14.628C45.2853 14.628 44.8453 14.708 44.4533 14.868C44.0613 15.02 43.7253 15.24 43.4453 15.528C43.1653 15.808 42.9493 16.152 42.7973 16.56C42.6453 16.96 42.5693 17.408 42.5693 17.904ZM50.1452 12.432V21H51.8492V12.432H50.1452ZM53.239 12.432V21H54.943V12.432H53.239ZM57.7967 17.904C57.7967 17.656 57.8207 17.412 57.8687 17.172C57.9167 16.932 57.9967 16.72 58.1087 16.536C58.2287 16.352 58.3847 16.204 58.5767 16.092C58.7687 15.972 59.0087 15.912 59.2967 15.912C59.5847 15.912 59.8247 15.972 60.0167 16.092C60.2167 16.204 60.3727 16.352 60.4847 16.536C60.6047 16.72 60.6887 16.932 60.7367 17.172C60.7847 17.412 60.8087 17.656 60.8087 17.904C60.8087 18.152 60.7847 18.396 60.7367 18.636C60.6887 18.868 60.6047 19.08 60.4847 19.272C60.3727 19.456 60.2167 19.604 60.0167 19.716C59.8247 19.828 59.5847 19.884 59.2967 19.884C59.0087 19.884 58.7687 19.828 58.5767 19.716C58.3847 19.604 58.2287 19.456 58.1087 19.272C57.9967 19.08 57.9167 18.868 57.8687 18.636C57.8207 18.396 57.7967 18.152 57.7967 17.904ZM56.0927 17.904C56.0927 18.4 56.1687 18.848 56.3207 19.248C56.4727 19.648 56.6887 19.992 56.9687 20.28C57.2487 20.56 57.5847 20.776 57.9767 20.928C58.3687 21.08 58.8087 21.156 59.2967 21.156C59.7847 21.156 60.2247 21.08 60.6167 20.928C61.0167 20.776 61.3567 20.56 61.6367 20.28C61.9167 19.992 62.1327 19.648 62.2847 19.248C62.4367 18.848 62.5127 18.4 62.5127 17.904C62.5127 17.408 62.4367 16.96 62.2847 16.56C62.1327 16.152 61.9167 15.808 61.6367 15.528C61.3567 15.24 61.0167 15.02 60.6167 14.868C60.2247 14.708 59.7847 14.628 59.2967 14.628C58.8087 14.628 58.3687 14.708 57.9767 14.868C57.5847 15.02 57.2487 15.24 56.9687 15.528C56.6887 15.808 56.4727 16.152 56.3207 16.56C56.1687 16.96 56.0927 17.408 56.0927 17.904ZM70.7127 21L72.6687 14.796H70.9167L69.7767 18.996H69.7527L68.6967 14.796H67.0407L66.0087 19.008H65.9847L64.8447 14.796H63.0447L65.0127 21H66.7767L67.8327 16.836H67.8567L68.9607 21H70.7127ZM82.7939 17.556L83.5499 14.46H82.5659L82.3739 15.108C82.2379 14.796 82.0339 14.58 81.7619 14.46C81.4899 14.332 81.2259 14.268 80.9699 14.268C80.5779 14.268 80.2179 14.356 79.8899 14.532C79.5699 14.708 79.2939 14.94 79.0619 15.228C78.8379 15.516 78.6619 15.844 78.5339 16.212C78.4139 16.58 78.3539 16.952 78.3539 17.328C78.3539 17.608 78.4019 17.872 78.4979 18.12C78.6019 18.368 78.7379 18.588 78.9059 18.78C79.0819 18.964 79.2819 19.112 79.5059 19.224C79.7379 19.328 79.9819 19.38 80.2379 19.38C80.4939 19.38 80.7379 19.324 80.9699 19.212C81.2019 19.1 81.3899 18.924 81.5339 18.684H81.5579C81.5739 18.884 81.6579 19.048 81.8099 19.176C81.9699 19.304 82.1779 19.368 82.4339 19.368C82.6259 19.368 82.8779 19.304 83.1899 19.176C83.5099 19.04 83.8219 18.832 84.1259 18.552C84.4379 18.272 84.7019 17.912 84.9179 17.472C85.1419 17.032 85.2539 16.504 85.2539 15.888C85.2539 15.336 85.1379 14.836 84.9059 14.388C84.6739 13.932 84.3659 13.548 83.9819 13.236C83.5979 12.916 83.1539 12.668 82.6499 12.492C82.1459 12.316 81.6219 12.228 81.0779 12.228C80.4539 12.228 79.8659 12.344 79.3139 12.576C78.7619 12.808 78.2779 13.124 77.8619 13.524C77.4459 13.924 77.1179 14.4 76.8779 14.952C76.6379 15.496 76.5179 16.084 76.5179 16.716C76.5179 17.356 76.6379 17.952 76.8779 18.504C77.1179 19.048 77.4459 19.52 77.8619 19.92C78.2859 20.32 78.7779 20.632 79.3379 20.856C79.8979 21.08 80.4979 21.192 81.1379 21.192C81.8899 21.192 82.5859 21.028 83.2259 20.7C83.8659 20.364 84.3899 19.884 84.7979 19.26H83.7899C83.4779 19.572 83.0939 19.816 82.6379 19.992C82.1899 20.16 81.7139 20.244 81.2099 20.244C80.6979 20.244 80.2219 20.16 79.7819 19.992C79.3499 19.824 78.9779 19.588 78.6659 19.284C78.3539 18.972 78.1099 18.604 77.9339 18.18C77.7579 17.748 77.6699 17.268 77.6699 16.74C77.6699 16.236 77.7499 15.768 77.9099 15.336C78.0699 14.896 78.2979 14.52 78.5939 14.208C78.8899 13.888 79.2459 13.64 79.6619 13.464C80.0859 13.28 80.5539 13.188 81.0659 13.188C81.5219 13.188 81.9459 13.252 82.3379 13.38C82.7379 13.508 83.0819 13.7 83.3699 13.956C83.6659 14.204 83.8979 14.512 84.0659 14.88C84.2339 15.24 84.3179 15.66 84.3179 16.14C84.3179 16.46 84.2739 16.756 84.1859 17.028C84.1059 17.3 83.9979 17.536 83.8619 17.736C83.7339 17.928 83.5819 18.08 83.4059 18.192C83.2379 18.296 83.0699 18.348 82.9019 18.348C82.8299 18.348 82.7779 18.324 82.7459 18.276C82.7139 18.22 82.6979 18.152 82.6979 18.072C82.6979 17.992 82.7059 17.908 82.7219 17.82C82.7459 17.724 82.7699 17.636 82.7939 17.556ZM79.5779 17.172C79.5779 16.972 79.6139 16.768 79.6859 16.56C79.7579 16.352 79.8579 16.164 79.9859 15.996C80.1219 15.82 80.2819 15.68 80.4659 15.576C80.6499 15.464 80.8499 15.408 81.0659 15.408C81.3219 15.408 81.5379 15.504 81.7139 15.696C81.8979 15.888 81.9899 16.132 81.9899 16.428C81.9899 16.636 81.9539 16.848 81.8819 17.064C81.8099 17.28 81.7059 17.476 81.5699 17.652C81.4419 17.82 81.2859 17.96 81.1019 18.072C80.9259 18.184 80.7299 18.24 80.5139 18.24C80.2339 18.24 80.0059 18.144 79.8299 17.952C79.6619 17.752 79.5779 17.492 79.5779 17.172ZM88.1916 13.836V12.432H86.4876V13.836H88.1916ZM85.4676 21.72V23.124C85.6276 23.156 85.8076 23.172 86.0076 23.172C86.4396 23.172 86.7956 23.132 87.0756 23.052C87.3556 22.98 87.5756 22.864 87.7356 22.704C87.9036 22.552 88.0196 22.36 88.0836 22.128C88.1556 21.896 88.1916 21.62 88.1916 21.3V14.796H86.4876V21.216C86.4876 21.448 86.4196 21.596 86.2836 21.66C86.1556 21.732 86.0036 21.768 85.8276 21.768C85.6756 21.768 85.5556 21.752 85.4676 21.72ZM90.9914 18.984H89.3714C89.3874 19.4 89.4794 19.748 89.6474 20.028C89.8234 20.3 90.0434 20.52 90.3074 20.688C90.5794 20.856 90.8874 20.976 91.2314 21.048C91.5754 21.12 91.9274 21.156 92.2874 21.156C92.6394 21.156 92.9834 21.12 93.3194 21.048C93.6634 20.984 93.9674 20.868 94.2314 20.7C94.4954 20.532 94.7074 20.312 94.8674 20.04C95.0354 19.76 95.1194 19.416 95.1194 19.008C95.1194 18.72 95.0634 18.48 94.9514 18.288C94.8394 18.088 94.6914 17.924 94.5074 17.796C94.3234 17.66 94.1114 17.552 93.8714 17.472C93.6394 17.392 93.3994 17.324 93.1514 17.268C92.9114 17.212 92.6754 17.16 92.4434 17.112C92.2114 17.064 92.0034 17.012 91.8194 16.956C91.6434 16.892 91.4994 16.812 91.3874 16.716C91.2754 16.62 91.2194 16.496 91.2194 16.344C91.2194 16.216 91.2514 16.116 91.3154 16.044C91.3794 15.964 91.4554 15.904 91.5434 15.864C91.6394 15.824 91.7434 15.8 91.8554 15.792C91.9674 15.776 92.0714 15.768 92.1674 15.768C92.4714 15.768 92.7354 15.828 92.9594 15.948C93.1834 16.06 93.3074 16.28 93.3314 16.608H94.9514C94.9194 16.224 94.8194 15.908 94.6514 15.66C94.4914 15.404 94.2874 15.2 94.0394 15.048C93.7914 14.896 93.5074 14.788 93.1874 14.724C92.8754 14.66 92.5514 14.628 92.2154 14.628C91.8794 14.628 91.5514 14.66 91.2314 14.724C90.9114 14.78 90.6234 14.884 90.3674 15.036C90.1114 15.18 89.9034 15.38 89.7434 15.636C89.5914 15.892 89.5154 16.22 89.5154 16.62C89.5154 16.892 89.5714 17.124 89.6834 17.316C89.7954 17.5 89.9434 17.656 90.1274 17.784C90.3114 17.904 90.5194 18.004 90.7514 18.084C90.9914 18.156 91.2354 18.22 91.4834 18.276C92.0914 18.404 92.5634 18.532 92.8994 18.66C93.2434 18.788 93.4154 18.98 93.4154 19.236C93.4154 19.388 93.3794 19.516 93.3074 19.62C93.2354 19.716 93.1434 19.796 93.0314 19.86C92.9274 19.916 92.8074 19.96 92.6714 19.992C92.5434 20.016 92.4194 20.028 92.2994 20.028C92.1314 20.028 91.9674 20.008 91.8074 19.968C91.6554 19.928 91.5194 19.868 91.3994 19.788C91.2794 19.7 91.1794 19.592 91.0994 19.464C91.0274 19.328 90.9914 19.168 90.9914 18.984ZM97.6288 17.904C97.6288 17.656 97.6528 17.412 97.7008 17.172C97.7488 16.932 97.8288 16.72 97.9408 16.536C98.0608 16.352 98.2168 16.204 98.4088 16.092C98.6008 15.972 98.8408 15.912 99.1288 15.912C99.4168 15.912 99.6568 15.972 99.8488 16.092C100.049 16.204 100.205 16.352 100.317 16.536C100.437 16.72 100.521 16.932 100.569 17.172C100.617 17.412 100.641 17.656 100.641 17.904C100.641 18.152 100.617 18.396 100.569 18.636C100.521 18.868 100.437 19.08 100.317 19.272C100.205 19.456 100.049 19.604 99.8488 19.716C99.6568 19.828 99.4168 19.884 99.1288 19.884C98.8408 19.884 98.6008 19.828 98.4088 19.716C98.2168 19.604 98.0608 19.456 97.9408 19.272C97.8288 19.08 97.7488 18.868 97.7008 18.636C97.6528 18.396 97.6288 18.152 97.6288 17.904ZM95.9248 17.904C95.9248 18.4 96.0008 18.848 96.1528 19.248C96.3048 19.648 96.5208 19.992 96.8008 20.28C97.0808 20.56 97.4168 20.776 97.8088 20.928C98.2008 21.08 98.6408 21.156 99.1288 21.156C99.6168 21.156 100.057 21.08 100.449 20.928C100.849 20.776 101.189 20.56 101.469 20.28C101.749 19.992 101.965 19.648 102.117 19.248C102.269 18.848 102.345 18.4 102.345 17.904C102.345 17.408 102.269 16.96 102.117 16.56C101.965 16.152 101.749 15.808 101.469 15.528C101.189 15.24 100.849 15.02 100.449 14.868C100.057 14.708 99.6168 14.628 99.1288 14.628C98.6408 14.628 98.2008 14.708 97.8088 14.868C97.4168 15.02 97.0808 15.24 96.8008 15.528C96.5208 15.808 96.3048 16.152 96.1528 16.56C96.0008 16.96 95.9248 17.408 95.9248 17.904ZM103.453 14.796V21H105.157V17.748C105.157 17.116 105.261 16.664 105.469 16.392C105.677 16.112 106.013 15.972 106.477 15.972C106.885 15.972 107.169 16.1 107.329 16.356C107.489 16.604 107.569 16.984 107.569 17.496V21H109.273V17.184C109.273 16.8 109.237 16.452 109.165 16.14C109.101 15.82 108.985 15.552 108.817 15.336C108.649 15.112 108.417 14.94 108.121 14.82C107.833 14.692 107.461 14.628 107.005 14.628C106.645 14.628 106.293 14.712 105.949 14.88C105.605 15.04 105.325 15.3 105.109 15.66H105.073V14.796H103.453ZM112.318 13.836V12.432H110.614V13.836H112.318ZM110.614 14.796V21H112.318V14.796H110.614ZM114.032 15.936V21H115.736V15.936H116.912V14.796H115.736V14.424C115.736 14.168 115.784 13.988 115.88 13.884C115.984 13.772 116.152 13.716 116.384 13.716C116.6 13.716 116.808 13.728 117.008 13.752V12.48C116.864 12.472 116.716 12.464 116.564 12.456C116.412 12.44 116.26 12.432 116.108 12.432C115.412 12.432 114.892 12.608 114.548 12.96C114.204 13.312 114.032 13.764 114.032 14.316V14.796H113.012V15.936H114.032ZM120.716 21.768L123.308 14.796H121.544L120.188 19.044H120.164L118.76 14.796H116.948L119.12 20.616C119.168 20.736 119.192 20.864 119.192 21C119.192 21.184 119.136 21.352 119.024 21.504C118.92 21.656 118.756 21.744 118.532 21.768C118.364 21.776 118.196 21.772 118.028 21.756C117.86 21.74 117.696 21.724 117.536 21.708V23.112C117.712 23.128 117.884 23.14 118.052 23.148C118.228 23.164 118.404 23.172 118.58 23.172C119.164 23.172 119.62 23.064 119.948 22.848C120.276 22.632 120.532 22.272 120.716 21.768Z" fill="black"/>
<path d="M22.016 16.112V10.856H20.384V16.112H15.152V17.744H20.384V23H22.016V17.744H27.248V16.112H22.016Z" fill="black"/>
<defs>
<linearGradient id="paint0_linear" x1="69" y1="3" x2="69" y2="32" gradientUnits="userSpaceOnUse">
<stop stop-color="#F8FAFA"/>
<stop offset="1" stop-color="#EEF2F5"/>
</linearGradient>
</defs>
</svg>
